<svg id="Layer_1" data-name="Layer 1" xmlns="http://www.w3.org/2000/svg" width="30.75516mm" height="22.61645mm" viewBox="0 0 87.17999 64.10962">
  <title>fly</title>
  <g>
    <path d="M11.28534,17.67962a1.55356,1.55356,0,0,0,1.82.89l3.06-.79a1.49287,1.49287,0,1,1,.75,2.89l-2.13.55a1.57569,1.57569,0,0,0-1.05,2.14l.21.51a5.09209,5.09209,0,0,0,4.49,3.06l26.85.84a1.47341,1.47341,0,0,1,1.39,1.1l.85,3.28a1.5552,1.5552,0,0,1-1.12,1.9l-10.77,2.8a3.30117,3.30117,0,0,0-2.55,3.15,3.15344,3.15344,0,0,0,3.67,3.09l22.25-3.52a42.042,42.042,0,0,0,11.87-3.77l5.71-2.81a3.18586,3.18586,0,0,0,1.67-3.65l-.07-.28a3.18119,3.18119,0,0,0-3.88-2.27l-10.38,2.7a1.475,1.475,0,0,1-1.8-1.06l-.75-2.91a1.57019,1.57019,0,0,1,1.12-1.91,6.70391,6.70391,0,0,0,1.84-.81l4.79-3.07a.66142.66142,0,0,1,.99.38l.44,1.72a1.51349,1.51349,0,0,0,2.93-.76l-.97-3.72a1.50656,1.50656,0,0,1,.13-1.13995,3.53677,3.53677,0,0,0,.38-2.72,3.613,3.613,0,0,0-1.66-2.19,1.45482,1.45482,0,0,1-.66-.92l-.97-3.72a1.50078,1.50078,0,0,0-1.84-1.08,1.4845,1.4845,0,0,0-1.08,1.84l.46,1.77a.65114.65114,0,0,1-.64.81l-6.16.06a2.09557,2.09557,0,0,1-1.52-.65l-5.31-5.62a4.90436,4.90436,0,0,0-4.92-1.33l-.97.29a1.72532,1.72532,0,0,0-1.22,1.52,4.88929,4.88929,0,0,1-3.87,4.41l-.17.04a1.47156,1.47156,0,0,0-.89,2.30005l1.9,2.61a1.58736,1.58736,0,0,0,1.05.63,2.614,2.614,0,0,1,.86.27,2.91856,2.91856,0,0,1,1.04.88,2.85744,2.85744,0,0,1-4.63,3.35,2.81614,2.81614,0,0,1-.5-2.21,1.4015,1.4015,0,0,0-.25-1.12l-3.46-4.79a1.4801,1.4801,0,0,0-1.5-.58l-7.08,1.49a3.25036,3.25036,0,0,1-3.03-.96,2.52585,2.52585,0,0,0-2.49-.74l-.2.05a4.25488,4.25488,0,0,1-4.42-1.49005l-4.08-5.23a1.46225,1.46225,0,0,0-1.54-.52l-5.97,1.55a1.4667,1.4667,0,0,0-.97,2.01Zm47.15,8.6.76,2.91a1.48259,1.48259,0,0,1-1.05,1.81l-5.88,1.53a1.48108,1.48108,0,0,1-1.8-1.07l-.76-2.91a1.57082,1.57082,0,0,1,1.12-1.9l5.71-1.49005A1.56164,1.56164,0,0,1,58.43536,26.2796Zm-8.16-19.89a1.39582,1.39582,0,0,1,.41-.05,1.567,1.567,0,0,1,1.16.5l1.9,1.99006a1.61728,1.61728,0,0,1-.76,2.68l-1.29.33a1.60468,1.60468,0,0,1-1.97-1.15l-.61-2.34A1.61266,1.61266,0,0,1,50.27539,6.38964Z" transform="translate(0.00464 0.00001)" style="fill: #231f20"/>
    <path d="M27.17486,6.77813A2.32953,2.32953,0,0,0,29.909,8.47149l5.31958-1.1192,3.23157-.6853,1.798-.3786a3.94955,3.94955,0,0,0,3.0086-4.85871A1.90969,1.90969,0,0,0,40.85229.08648L28.685,3.86431a2.30214,2.30214,0,0,0-1.54547,2.778Z" transform="translate(0.00464 0.00001)" style="fill: #231f20"/>
    <path d="M83.98535,50.37963a3.32564,3.32564,0,0,0-1.1.2l-3.31,1.2a9.64941,9.64941,0,0,1-6.59,0l-4.31-1.56a9.62163,9.62163,0,0,0-6.58,0l-4.32,1.56a9.621,9.621,0,0,1-6.58,0l-4.31-1.56a9.65017,9.65017,0,0,0-6.59,0l-4.31,1.56a9.64924,9.64924,0,0,1-6.59,0l-4.31-1.56a9.62177,9.62177,0,0,0-6.58,0l-4.32,1.56a9.621,9.621,0,0,1-6.58,0l-3.31-1.2a3.32564,3.32564,0,0,0-1.1-.2,3.21117,3.21117,0,0,0-3.2,3.21v7.32a3.20941,3.20941,0,0,0,3.2,3.2h80.78a3.203,3.203,0,0,0,3.2-3.2v-7.32A3.20912,3.20912,0,0,0,83.98535,50.37963Z" transform="translate(0.00464 0.00001)" style="fill: #231f20"/>
  </g>
</svg>