<svg id="Layer_1" data-name="Layer 1" xmlns="http://www.w3.org/2000/svg" width="30.75516mm" height="20.33412mm" viewBox="0 0 87.17999 57.64001">
  <title>host</title>
  <g>
    <path d="M10.89538,43.89392a7.756,7.756,0,0,0,2.61-.46l4.32-1.56006a11.60856,11.60856,0,0,1,7.94,0l4.32,1.56006a7.635,7.635,0,0,0,5.22,0l4.31-1.56006a11.637,11.637,0,0,1,7.95,0l4.31,1.56006a7.756,7.756,0,0,0,2.61.46,7.281,7.281,0,0,0,1.32-.12,3.1895,3.1895,0,0,0,.53-2.64,3.30572,3.30572,0,0,0-3.26-2.41h-11.13a1.562,1.562,0,0,1-1.56-1.56v-3.39a1.467,1.467,0,0,1,1.06-1.41l25.78-7.57a5.0765,5.0765,0,0,0,3.57-4.09l.08-.55a1.56655,1.56655,0,0,0-1.55-1.8h-2.2a1.495,1.495,0,0,1,0-2.99h3.15a1.55113,1.55113,0,0,0,1.54-1.32l1.91-12.34a1.4724,1.4724,0,0,0-1.45-1.7H66.10534a1.46462,1.46462,0,0,0-1.35.89l-2.64,6.09a4.25758,4.25758,0,0,1-3.9,2.56h-.2a2.52168,2.52168,0,0,0-2.23,1.34,3.22575,3.22575,0,0,1-2.68995,1.69l-7.23.34a1.47952,1.47952,0,0,0-1.3.94l-2.15,5.51a1.43854,1.43854,0,0,0,.04,1.15,2.81483,2.81483,0,0,1,.08,2.26,2.86078,2.86078,0,1,1-4.54-3.19,2.72012,2.72012,0,0,1,.76-.48,1.563,1.563,0,0,0,.86-.87l1.18-3.01a1.47282,1.47282,0,0,0-1.44-2h-.17a4.89261,4.89261,0,0,1-4.85-3.29,1.72476,1.72476,0,0,0-1.56-1.16l-1.02-.04a4.89444,4.89444,0,0,0-4.43,2.53l-3.73,6.77a2.059,2.059,0,0,1-1.3,1.01l-5.98,1.5a.64932.64932,0,0,1-.82-.63v-1.83a1.51,1.51,0,0,0-3.02,0v3.85a1.43978,1.43978,0,0,1-.4,1.05,3.56138,3.56138,0,0,0-.01,5.08,1.49481,1.49481,0,0,1,.41,1.07v3.84a1.51,1.51,0,0,0,3.02,0v-1.77a.65745.65745,0,0,1,.86-.62l5.41,1.76a6.74508,6.74508,0,0,0,1.99.33,1.562,1.562,0,0,1,1.56,1.56v3.01a1.47454,1.47454,0,0,1-1.47,1.48h-10.73a3.17308,3.17308,0,0,0-3.18,3.17v.29a3.15218,3.15218,0,0,0,.49,1.68994A3.69222,3.69222,0,0,0,10.89538,43.89392Zm24.91-11.22a1.54932,1.54932,0,0,1,1.56,1.56v3.01a1.47453,1.47453,0,0,1-1.47,1.48h-6.08a1.47454,1.47454,0,0,1-1.47-1.48v-3.01a1.55559,1.55559,0,0,1,1.56-1.56Zm-7.31-16.51,1.34-2.41a1.63109,1.63109,0,0,1,1.41-.83,1.6089,1.6089,0,0,1,1.61,1.61v2.41a1.609,1.609,0,0,1-1.61,1.61005h-1.34A1.61163,1.61163,0,0,1,28.49536,16.16394Z" transform="translate(0.00464 -0.0039)" style="fill: #231f20"/>
    <path d="M40.91424,10.30609,42.74969,10.22l3.3-.15,5.43005-.25555a2.32949,2.32949,0,0,0,2.22-2.3269V7.34716a2.30213,2.30213,0,0,0-2.19482-2.29962L38.77844,4.4533a1.90966,1.90966,0,0,0-1.99872,1.9076A3.94952,3.94952,0,0,0,40.91424,10.30609Z" transform="translate(0.00464 -0.0039)" style="fill: #231f20"/>
    <path d="M83.98535,43.91394a3.32562,3.32562,0,0,0-1.1.2l-3.31,1.19995a9.64926,9.64926,0,0,1-6.59,0l-4.31-1.56a9.62179,9.62179,0,0,0-6.58,0l-4.32,1.56a9.62087,9.62087,0,0,1-6.58,0l-.08-.03-4.23-1.53a9.65032,9.65032,0,0,0-6.59,0l-4.31,1.56a1.509,1.509,0,0,1-.2.06,9.36844,9.36844,0,0,1-3.09.52,9.54468,9.54468,0,0,1-2.99-.48c-.1-.03-.21-.06-.31-.1l-4.31-1.56a9.62193,9.62193,0,0,0-6.58,0l-4.32,1.56c-.21.08-.41.14-.62.2a9.3153,9.3153,0,0,1-2.67.38,9.54523,9.54523,0,0,1-3.29-.58l-3.31-1.19995a3.32562,3.32562,0,0,0-1.1-.2,3.21116,3.21116,0,0,0-3.2,3.21v7.32a3.20942,3.20942,0,0,0,3.2,3.2h80.78a3.203,3.203,0,0,0,3.2-3.2v-7.32A3.20911,3.20911,0,0,0,83.98535,43.91394Z" transform="translate(0.00464 -0.0039)" style="fill: #231f20"/>
  </g>
</svg>