<svg xmlns="http://www.w3.org/2000/svg" width="42.49999mm" height="27.80534mm" viewBox="0 0 120.47241 78.81829">
  <title>plaza</title>
  <g id="Layer_2" data-name="Layer 2">
    <g>
      <path d="M48.18069,78.81789H72.29755a2.15522,2.15522,0,0,0,2.15467-2.10632L75.1044,47.972a2.15522,2.15522,0,0,0-2.15466-2.20412H47.5198a2.15523,2.15523,0,0,0-2.15465,2.20477L46.026,76.71222A2.15522,2.15522,0,0,0,48.18069,78.81789Z" style="fill: #6b5c44"/>
      <path d="M113.41486,69.86516l2.33762-27.31977a2.15519,2.15519,0,0,0-.57556-1.65832L93.873,18.17852a2.15523,2.15523,0,0,0-1.5718-.68064H75.70045a2.15521,2.15521,0,0,1-2.15522-2.15521V11.418a2.1552,2.1552,0,0,0-.7783-1.658L61.61318.49719a2.15521,2.15521,0,0,0-2.75383,0L47.70549,9.75993a2.1552,2.1552,0,0,0-.7783,1.658v3.92471A2.15522,2.15522,0,0,1,44.772,17.49788H28.16771a2.15523,2.15523,0,0,0-1.57181.68064L5.292,40.88707a2.15519,2.15519,0,0,0-.57556,1.65832L7.054,69.86516a2.15523,2.15523,0,0,1-2.14738,2.339H2.15522A2.15522,2.15522,0,0,0,0,74.35934v2.30374a2.15521,2.15521,0,0,0,2.15524,2.15521l33.20112-.00037a2.15522,2.15522,0,0,0,2.1543-2.21721L36.40943,38.33143a2.15522,2.15522,0,0,1,1.42757-2.091l21.67067-7.76222a2.15524,2.15524,0,0,1,1.45353,0l21.671,7.76235a2.15521,2.15521,0,0,1,1.42758,2.09047L82.96768,76.60122a2.15523,2.15523,0,0,0,2.15431,2.2167l33.19518.00037a2.15521,2.15521,0,0,0,2.15524-2.15521V74.35934a2.15522,2.15522,0,0,0-2.15522-2.15522h-2.755A2.15522,2.15522,0,0,1,113.41486,69.86516Zm-94.6486.59275a2.15523,2.15523,0,0,1-2.14854-1.98568L15.58441,55.37789a5.4237,5.4237,0,0,1,5.6-5.22,5.79679,5.79679,0,0,1,3.95,1.53,5.03788,5.03788,0,0,1,1.63995,3.69l.74691,12.79924a2.15522,2.15522,0,0,1-2.15156,2.28078Zm82.945,0H95.10062a2.15522,2.15522,0,0,1-2.15147-2.2822l.75532-12.79782a5.41465,5.41465,0,0,1,5.59-5.22,5.79682,5.79682,0,0,1,3.95,1.53,5.03771,5.03771,0,0,1,1.64,3.69L103.86,68.47082A2.15523,2.15523,0,0,1,101.7113,70.45791Z" style="fill: #6b5c44"/>
    </g>
  </g>
</svg>