<svg id="Layer_1" data-name="Layer 1" xmlns="http://www.w3.org/2000/svg" width="23.50559mm" height="28.22222mm" viewBox="0 0 66.63 80">
  <title>pp</title>
  <g>
    <path d="M57.67,0H8.96A8.9709,8.9709,0,0,0,0,8.96V71.03A8.973,8.973,0,0,0,8.96,80H57.67a8.973,8.973,0,0,0,8.96-8.97V8.96A8.9709,8.9709,0,0,0,57.67,0Zm0,71.03A4.96977,4.96977,0,0,1,52.7,76H8.96A4.96765,4.96765,0,0,1,4,71.03V8.96A4.95915,4.95915,0,0,1,8.96,4H52.7a4.96129,4.96129,0,0,1,4.97,4.96Z" style="fill: #231f20"/>
    <path d="M30.83,37.72a3.331,3.331,0,0,0,2.8-1.52,1.16147,1.16147,0,0,0-.96-1.81H28.99a1.14656,1.14656,0,0,0-1.04,1.67A3.31547,3.31547,0,0,0,30.83,37.72Z" style="fill: #231f20"/>
    <path d="M44.2,14.27H17.47A3.203,3.203,0,0,0,14.27,17.47V44.19A3.203,3.203,0,0,0,17.47,47.39H23.08a.93115.93115,0,0,0,.93-.82,6.90423,6.90423,0,0,1,2.04-4.1,1.0431,1.0431,0,0,0-.21-1.69,11.1294,11.1294,0,0,1,3.72-21c.43-.04.86-.07,1.27-.07a11.13084,11.13084,0,0,1,5.01,21.07,1.04756,1.04756,0,0,0-.21,1.7,6.78331,6.78331,0,0,1,2.03,4.09.93122.93122,0,0,0,.93006.82H44.2a3.19443,3.19443,0,0,0,3.19-3.2V17.47A3.19443,3.19443,0,0,0,44.2,14.27Z" style="fill: #231f20"/>
    <path d="M45.54,57.38H16.13a1.85647,1.85647,0,0,0-1.86,1.86v3a1.85436,1.85436,0,0,0,1.86,1.85H45.54a1.85225,1.85225,0,0,0,1.85-1.85v-3A1.85439,1.85439,0,0,0,45.54,57.38Z" style="fill: #231f20"/>
  </g>
</svg>